Format                                   : Matroska
Format version                           : Version 2
File size                                : 1.04 GiB
Duration                                 : 1h 43mn
Overall bit rate                         : 1 431 Kbps
Movie name                               : Tango And Cash [1989].720p.BRRip.x264.[Dual Audio] [Hindi+English].by K@rtik [ExD Exclusive]
Codec ID                                 : V_MPEG4/ISO/AVC
Duration                                 : 1h 43mn
Bit rate                                 : 984 Kbps
Width                                    : 1 280 pixels
Height                                   : 528 pixels
Display aspect ratio                     : 2.40:1
Frame rate                               : 23.976 fps
Chroma subsampling                       : 4:2:0
Bit depth                                : 8 bits
Stream size                              : 709 MiB (67%)
Title                                    : K@rtik
Codec ID                                 : A_AC3
Duration                                 : 1h 43mn
Bit rate                                 : 224 Kbps
Channel(s)                               : 2 channels
Channel positions                        : Front: L R
Sampling rate                            : 48.0 KHz
Stream size                              : 166 MiB (16%)
Title                                    : K@rtik
Language                                 : Hindi
Codec ID                                 : A_AC3
Duration                                 : 1h 43mn
Bit rate mode                            : Constant
Bit rate                                 : 224 Kbps
Channel(s)                               : 6 channels
Channel positions                        : Front: L C R, Side: L R, LFE
Sampling rate                            : 48.0 KHz
Stream size                              : 166 MiB (16%)
Title                                    : K@rtik
Language                                 : English 
http://img269.imageshack.us/img269/9185/78089880.png 
http://img836.imageshack.us/img836/9141/17252337.png 
http://img211.imageshack.us/img211/1926/72484881.png 
http://img222.imageshack.us/img222/1173/25628844.png 
http://img849.imageshack.us/img849/4141/64432166.png 
http://img138.imageshack.us/img138/7236/92233990.png 
http://img222.imageshack.us/img222/8510/25814158.png 
http://img715.imageshack.us/img715/715/39428439.png 
http://img853.imageshack.us/img853/8180/76164315.png 
http://img607.imageshack.us/img607/9133/39114040.png 
http://img194.imageshack.us/img194/2141/78995640.png

